<?xml version="1.0" standalone="no"?>
<!DOCTYPE svg PUBLIC "-//W3C//DTD SVG 20010904//EN"
 "http://www.w3.org/TR/2001/REC-SVG-20010904/DTD/svg10.dtd">
<svg version="1.0" xmlns="http://www.w3.org/2000/svg"
 width="1000.000000pt" height="1000.000000pt" viewBox="0 0 1000.000000 1000.000000"
 preserveAspectRatio="xMidYMid meet">

<g transform="translate(0.000000,1000.000000) scale(0.100000,-0.100000)"
fill="#000000" stroke="none">
<path d="M0 5000 l0 -5000 5000 0 5000 0 0 5000 0 5000 -5000 0 -5000 0 0
-5000z m5098 2504 c18 -8 32 -19 32 -24 0 -5 8 -16 18 -26 24 -24 22 -100 -3
-148 -36 -67 -142 -91 -204 -45 -79 58 -83 162 -10 230 26 24 40 29 84 29 28
0 66 -7 83 -16z m-1411 -1006 c-3 -8 -6 -5 -6 6 -1 11 2 17 5 13 3 -3 4 -12 1
-19z m27 -20 c-2 -13 -1 -17 2 -10 10 22 34 -19 28 -48 -4 -18 -3 -21 4 -11
11 16 32 6 32 -15 0 -8 5 -14 11 -14 6 0 9 -6 6 -13 -3 -8 -1 -20 5 -28 8 -11
9 -10 4 4 -3 9 -4 17 -2 17 6 0 71 -96 68 -102 -1 -5 1 -7 6 -6 4 2 27 -18 51
-45 61 -65 191 -175 283 -236 l78 -52 -7 -2457 c-3 -1351 -6 -2458 -7 -2459
-3 -4 -280 57 -388 86 -140 37 -382 121 -532 185 -228 97 -595 301 -588 328 3
13 -17 38 -31 38 -6 0 -2 -7 9 -15 16 -12 16 -14 3 -15 -17 0 -36 17 -39 35
-1 6 -9 9 -18 8 -11 -2 -13 0 -3 4 11 4 11 7 0 15 -10 7 -8 8 6 3 11 -5 31 -9
45 -10 14 -1 17 0 8 2 -10 2 -18 6 -18 7 0 6 50 120 60 138 6 10 10 27 10 37
0 11 4 23 10 26 5 3 17 32 26 63 9 31 21 60 26 63 5 3 12 26 15 50 2 24 8 53
13 64 15 36 33 115 27 121 -3 3 -1 20 4 37 5 18 11 84 14 147 3 63 7 122 8
130 2 8 7 26 10 40 4 14 9 59 12 100 3 41 7 102 10 135 14 190 16 336 5 400
-29 177 -42 612 -27 905 4 82 51 286 72 310 7 8 15 29 18 45 17 86 63 235 74
235 11 0 33 57 48 125 4 16 11 33 17 36 5 3 12 26 15 50 2 24 11 58 18 74 7
17 21 50 30 75 9 25 22 54 28 65 5 11 12 62 14 115 4 88 27 180 46 180 4 0 7
22 7 48 0 26 5 53 11 59 7 7 14 57 17 112 2 56 9 101 13 101 5 0 9 54 9 119 0
96 3 120 15 125 9 3 15 19 15 41 0 19 5 35 10 35 6 0 10 11 10 23 0 34 28 85
56 104 27 17 31 33 9 33 -26 0 -16 21 15 32 35 12 61 48 35 48 -26 0 -12 23
28 49 20 13 37 30 37 37 0 7 12 22 27 34 l28 22 28 -34 29 -33 -20 41 c-16 31
-18 44 -9 53 15 15 16 14 11 -11z m2615 -74 c4 3 8 -5 8 -17 3 -34 25 -67 44
-67 9 0 90 -72 179 -160 119 -117 156 -160 141 -160 -23 0 -27 -10 -10 -27 5
-5 13 -37 17 -69 5 -49 7 -54 12 -27 l5 31 27 -21 c26 -22 26 -26 38 -202 10
-157 14 -181 31 -193 15 -10 19 -25 19 -68 0 -30 3 -54 8 -54 4 0 6 -20 4 -45
-3 -28 0 -45 7 -45 6 0 11 -12 11 -27 0 -53 12 -102 30 -120 13 -15 18 -47 24
-153 6 -114 11 -141 31 -177 20 -37 23 -56 24 -160 1 -65 6 -162 13 -216 9
-79 9 -100 -1 -107 -10 -6 -9 -14 3 -38 11 -21 16 -58 16 -116 0 -51 4 -86 11
-88 7 -2 13 -60 16 -153 3 -83 9 -154 14 -159 5 -6 9 -44 9 -86 0 -42 4 -80 9
-86 10 -9 16 -62 27 -221 3 -51 10 -93 15 -93 5 0 9 -29 9 -64 0 -36 5 -68 10
-71 6 -3 10 -26 10 -50 0 -40 34 -125 53 -133 4 -2 7 -28 7 -58 0 -30 4 -54
10 -54 5 0 13 -12 16 -26 5 -19 9 -23 16 -12 5 8 6 3 2 -15 -4 -16 -1 -33 6
-42 7 -8 9 -23 5 -36 -6 -17 1 -29 31 -55 21 -19 32 -34 26 -34 -6 0 -9 -7 -6
-15 4 -8 10 -13 14 -10 7 5 23 -26 25 -47 0 -3 3 -10 8 -14 4 -4 7 -25 7 -46
0 -22 7 -46 15 -54 8 -9 15 -22 15 -30 0 -8 -7 -14 -15 -14 -24 0 -18 -19 15
-47 17 -13 30 -31 30 -39 0 -8 3 -14 8 -14 4 0 12 -10 17 -22 6 -12 19 -26 30
-32 36 -20 45 -34 45 -71 0 -28 7 -42 30 -62 17 -13 30 -30 30 -37 0 -6 14
-17 30 -23 20 -8 30 -18 30 -32 0 -12 5 -21 11 -21 5 0 7 -5 3 -12 -6 -9 -9
-9 -12 0 -2 7 -8 12 -14 12 -6 0 -5 -7 3 -16 7 -8 21 -13 30 -11 10 3 26 -4
36 -16 15 -17 16 -20 2 -14 -11 3 -16 0 -15 -10 0 -8 -10 -22 -24 -30 l-25
-15 25 22 25 22 -28 -16 c-15 -9 -33 -14 -40 -10 -7 4 -9 4 -5 -1 4 -4 2 -15
-5 -24 -11 -14 -10 -15 8 -1 19 15 19 15 0 -12 -11 -15 -23 -28 -27 -28 -4 0
-15 -8 -25 -18 -40 -40 -292 -219 -378 -268 -11 -6 -56 -33 -100 -59 -258
-154 -644 -315 -972 -405 -157 -43 -361 -86 -369 -78 -3 3 -2 1108 2 2455 l7
2450 51 28 c67 37 203 143 267 208 29 29 56 51 60 50 5 -2 8 3 7 10 -2 6 3 11
10 10 6 -2 11 3 10 10 -2 6 3 11 10 9 8 -1 11 2 8 7 -8 12 20 34 33 26 7 -4 8
1 4 11 -4 12 -3 15 5 10 7 -4 10 -2 7 6 -6 17 57 96 73 90 7 -2 12 6 13 20 1
17 3 18 6 5 2 -9 8 -15 12 -13z m419 -456 c18 -18 15 -28 -8 -28 -13 0 -20 7
-20 20 0 23 10 26 28 8z m977 -3976 c2 -26 1 -27 -19 -6 -9 8 -13 20 -10 25
10 16 27 5 29 -19z"/>
<path d="M3720 6451 c0 -5 5 -13 10 -16 6 -3 10 -2 10 4 0 5 -4 13 -10 16 -5
3 -10 2 -10 -4z"/>
<path d="M3670 6443 c0 -5 7 -18 15 -29 13 -18 14 -18 8 4 -5 22 -23 41 -23
25z"/>
<path d="M6283 6373 c-7 -2 -13 -11 -13 -19 0 -8 -4 -14 -10 -14 -5 0 -10 -6
-10 -12 1 -7 9 -3 19 10 11 12 24 22 30 22 6 0 11 5 11 10 0 11 -7 12 -27 3z"/>
<path d="M6099 6173 c-13 -16 -12 -17 4 -4 9 7 17 15 17 17 0 8 -8 3 -21 -13z"/>
<path d="M7605 2030 c3 -5 8 -10 11 -10 2 0 4 5 4 10 0 6 -5 10 -11 10 -5 0
-7 -4 -4 -10z"/>
</g>
</svg>
